<svg width="187" height="188" viewBox="0 0 187 188" fill="none" xmlns="http://www.w3.org/2000/svg">
<path fill-rule="evenodd" clip-rule="evenodd" d="M90.4559 3.74126C93.416 2.07973 97.0607 2.07973 100.017 3.74126C114.644 11.9532 158.66 36.6721 173.291 44.8841C176.252 46.5412 178.074 49.6112 178.074 52.9347C178.074 69.3586 178.074 118.792 178.074 135.216C178.074 138.539 176.252 141.609 173.291 143.271C158.664 151.483 114.648 176.202 100.017 184.414C97.0563 186.075 93.4117 186.075 90.4559 184.414C75.8286 176.202 31.8126 151.483 17.1814 143.271C14.2257 141.609 12.4028 138.543 12.4028 135.22C12.4028 118.796 12.4028 69.363 12.4028 52.9391C12.4028 49.6155 14.2257 46.5456 17.1858 44.8841C31.8082 36.6721 75.833 11.9532 90.4559 3.74126Z" fill="#283593"/>
<path fill-rule="evenodd" clip-rule="evenodd" d="M13.7287 139.451C12.569 137.898 12.4028 136.424 12.4028 134.44C12.4028 118.112 12.4028 68.9622 12.4028 52.6297C12.4028 49.3241 14.2213 46.2712 17.1727 44.6227C31.7475 36.4589 75.6153 11.8838 90.1897 3.71558C93.1415 2.0628 97.1394 2.09729 100.091 3.75056C114.666 11.9144 158.385 36.2801 172.96 44.444C174.137 45.1071 175.035 45.9048 175.837 46.9562L13.7287 139.451Z" fill="#5C6BC0"/>
<path fill-rule="evenodd" clip-rule="evenodd" d="M95.2381 33.0225C128.926 33.0225 156.275 60.3799 156.275 94.0784C156.275 127.776 128.926 155.134 95.2381 155.134C61.5504 155.134 34.2017 127.776 34.2017 94.0784C34.2017 60.3799 61.5504 33.0225 95.2381 33.0225ZM95.2381 63.5504C112.08 63.5504 125.756 77.2269 125.756 94.0784C125.756 110.925 112.08 124.606 95.2381 124.606C78.3964 124.606 64.7199 110.925 64.7199 94.0784C64.7199 77.2269 78.392 63.5504 95.2381 63.5504Z" fill="white"/>
<path fill-rule="evenodd" clip-rule="evenodd" d="M175.828 46.998C178.078 49.1046 178.035 52.2795 178.035 54.7786C178.035 71.3288 177.895 118.403 178.074 134.953C178.091 136.68 177.52 138.499 176.665 139.868L93.4641 94.0767L175.828 46.998Z" fill="#3949AB"/>
<path fill-rule="evenodd" clip-rule="evenodd" d="M125.756 80.9941H134.476V107.161H125.756V80.9941ZM156.275 80.9941H164.994V107.161H156.275V80.9941Z" fill="white"/>
<path fill-rule="evenodd" clip-rule="evenodd" d="M117.037 89.7158H143.196V98.4379H117.037V89.7158ZM147.555 89.7158H173.714V98.4379H147.555V89.7158Z" fill="white"/>
</svg>
