<?xml version="1.0" encoding="utf-8"?>
<svg xmlns="http://www.w3.org/2000/svg" viewBox="1077.26 -267.45 512 148.29" width="512px" height="148.29px">
  <path d="M 1080.59 -151.82 L 1080.59 -208.8 L 1151.73 -208.8 L 1151.73 -212.13 L 1080.59 -212.13 L 1080.59 -264.12 L 1156.23 -264.12 L 1156.23 -267.45 L 1077.26 -267.45 L 1077.26 -148.49 L 1156.9 -148.49 L 1156.9 -151.82 L 1080.59 -151.82 L 1080.59 -151.82 Z M 1221.05 -234.13 L 1191.56 -195.31 L 1162.73 -234.13 L 1158.4 -234.13 L 1189.56 -192.81 L 1155.4 -148.49 L 1159.4 -148.49 L 1191.55 -190.31 L 1223.88 -148.49 L 1228.04 -148.49 L 1193.72 -192.81 L 1225.04 -234.13 L 1221.05 -234.13 L 1221.05 -234.13 Z M 1238.04 -119.16 L 1238.04 -172.48 L 1238.37 -172.48 C 1240.37 -164.7 1244.32 -158.46 1250.2 -153.73 C 1256.09 -149.01 1263.59 -146.65 1272.69 -146.65 C 1278.58 -146.65 1283.8 -147.85 1288.36 -150.24 C 1292.91 -152.62 1296.71 -155.87 1299.77 -159.98 C 1302.82 -164.09 1305.16 -168.87 1306.77 -174.31 C 1308.38 -179.75 1309.18 -185.47 1309.18 -191.47 C 1309.18 -197.91 1308.35 -203.86 1306.68 -209.3 C 1305.02 -214.74 1302.6 -219.46 1299.44 -223.46 C 1296.27 -227.46 1292.44 -230.57 1287.94 -232.79 C 1283.44 -235.01 1278.36 -236.12 1272.69 -236.12 C 1268.36 -236.12 1264.34 -235.49 1260.62 -234.21 C 1256.89 -232.93 1253.59 -231.13 1250.7 -228.79 C 1247.8 -226.44 1245.27 -223.66 1243.2 -220.55 C 1241.1 -217.38 1239.48 -213.91 1238.37 -210.13 L 1238.04 -210.13 L 1238.04 -234.13 L 1234.71 -234.13 L 1234.71 -119.16 L 1238.04 -119.16 L 1238.04 -119.16 Z M 1272.69 -149.82 C 1262.26 -149.82 1253.87 -153.4 1247.54 -160.57 C 1241.21 -167.73 1238.04 -178.03 1238.04 -191.47 C 1238.04 -197.03 1238.82 -202.3 1240.37 -207.3 C 1241.93 -212.3 1244.18 -216.69 1247.12 -220.46 C 1250.06 -224.24 1253.7 -227.24 1258.03 -229.46 C 1262.37 -231.68 1267.25 -232.79 1272.69 -232.79 C 1278.25 -232.79 1283.11 -231.68 1287.27 -229.46 C 1291.44 -227.24 1294.88 -224.21 1297.6 -220.38 C 1300.33 -216.55 1302.38 -212.16 1303.77 -207.22 C 1305.16 -202.28 1305.85 -197.03 1305.85 -191.47 C 1305.85 -186.47 1305.21 -181.5 1303.93 -176.56 C 1302.66 -171.62 1300.69 -167.18 1298.02 -163.23 C 1295.36 -159.29 1291.94 -156.07 1287.77 -153.57 C 1283.61 -151.07 1278.58 -149.82 1272.69 -149.82 L 1272.69 -149.82 Z M 1327.51 -148.49 L 1327.51 -196.97 C 1327.51 -201.64 1328.18 -206.19 1329.51 -210.63 C 1330.84 -215.08 1332.9 -218.99 1335.67 -222.38 C 1338.45 -225.77 1341.98 -228.43 1346.26 -230.38 C 1350.53 -232.32 1355.61 -233.13 1361.5 -232.79 L 1361.5 -236.13 C 1356.39 -236.24 1351.92 -235.68 1348.09 -234.46 C 1344.26 -233.24 1340.95 -231.57 1338.17 -229.46 C 1335.4 -227.35 1333.18 -224.88 1331.51 -222.05 C 1329.85 -219.22 1328.61 -216.16 1327.84 -212.97 L 1327.51 -212.97 L 1327.51 -234.13 L 1324.18 -234.13 L 1324.18 -148.49 L 1327.51 -148.49 L 1327.51 -148.49 Z M 1365.66 -190.64 L 1437.31 -190.64 C 1437.53 -196.53 1436.95 -202.19 1435.56 -207.63 C 1434.17 -213.08 1431.95 -217.91 1428.89 -222.13 C 1425.84 -226.35 1421.9 -229.74 1417.07 -232.29 C 1412.23 -234.85 1406.48 -236.13 1399.82 -236.13 C 1395.04 -236.13 1390.38 -235.13 1385.83 -233.13 C 1381.27 -231.13 1377.27 -228.21 1373.83 -224.38 C 1370.39 -220.55 1367.61 -215.85 1365.5 -210.3 C 1363.39 -204.75 1362.33 -198.41 1362.33 -191.31 C 1362.33 -184.97 1363.06 -179.06 1364.5 -173.56 C 1365.94 -168.06 1368.16 -163.29 1371.16 -159.23 C 1374.16 -155.18 1378.02 -152.04 1382.74 -149.82 C 1387.46 -147.6 1393.16 -146.54 1399.82 -146.65 C 1409.6 -146.65 1417.82 -149.4 1424.48 -154.9 C 1431.14 -160.4 1435.09 -168.15 1436.31 -178.14 L 1432.98 -178.14 C 1431.53 -168.7 1427.84 -161.62 1421.9 -156.9 C 1415.95 -152.18 1408.48 -149.82 1399.49 -149.82 C 1393.38 -149.82 1388.21 -150.88 1383.99 -152.99 C 1379.77 -155.09 1376.33 -157.98 1373.66 -161.65 C 1371 -165.31 1369.03 -169.62 1367.75 -174.56 C 1366.47 -179.5 1365.78 -184.86 1365.66 -190.64 Z M 1433.98 -193.97 L 1365.67 -193.97 C 1366 -199.97 1367.11 -205.36 1369 -210.13 C 1370.89 -214.91 1373.36 -218.99 1376.41 -222.38 C 1379.47 -225.77 1383.02 -228.35 1387.08 -230.13 C 1391.13 -231.9 1395.49 -232.79 1400.15 -232.79 C 1405.71 -232.79 1410.59 -231.76 1414.82 -229.71 C 1419.04 -227.66 1422.56 -224.85 1425.4 -221.3 C 1428.23 -217.74 1430.37 -213.6 1431.81 -208.88 C 1433.25 -204.16 1433.98 -199.19 1433.98 -193.97 Z M 1506.45 -208.8 L 1509.79 -208.8 C 1509.79 -218.35 1507.01 -225.29 1501.45 -229.63 C 1495.9 -233.96 1488.35 -236.13 1478.8 -236.13 C 1473.46 -236.13 1468.96 -235.46 1465.3 -234.13 C 1461.63 -232.79 1458.63 -231.07 1456.3 -228.96 C 1453.97 -226.85 1452.3 -224.52 1451.3 -221.96 C 1450.3 -219.41 1449.8 -216.96 1449.8 -214.63 C 1449.8 -209.97 1450.64 -206.25 1452.3 -203.47 C 1453.97 -200.69 1456.58 -198.53 1460.13 -196.97 C 1462.58 -195.86 1465.35 -194.86 1468.46 -193.97 C 1471.58 -193.08 1475.18 -192.14 1479.3 -191.14 C 1482.96 -190.25 1486.57 -189.36 1490.13 -188.47 C 1493.68 -187.59 1496.82 -186.39 1499.54 -184.89 C 1502.26 -183.39 1504.48 -181.48 1506.2 -179.14 C 1507.92 -176.81 1508.79 -173.76 1508.79 -169.98 C 1508.79 -166.31 1507.92 -163.2 1506.2 -160.65 C 1504.49 -158.11 1502.25 -155.97 1499.62 -154.4 C 1496.96 -152.79 1493.98 -151.63 1490.71 -150.9 C 1487.43 -150.18 1484.24 -149.82 1481.13 -149.82 C 1471.02 -149.82 1463.27 -152.07 1457.88 -156.57 C 1452.5 -161.07 1449.81 -168.15 1449.81 -177.81 L 1446.47 -177.81 C 1446.47 -167.04 1449.39 -159.15 1455.22 -154.15 C 1461.05 -149.15 1469.69 -146.65 1481.13 -146.65 C 1484.79 -146.65 1488.49 -147.07 1492.21 -147.9 C 1495.93 -148.74 1499.26 -150.1 1502.2 -151.99 C 1505.12 -153.85 1507.57 -156.36 1509.37 -159.32 C 1511.2 -162.32 1512.12 -165.98 1512.12 -170.31 C 1512.12 -174.42 1511.31 -177.75 1509.7 -180.31 C 1508.09 -182.86 1505.98 -184.97 1503.37 -186.64 C 1500.76 -188.31 1497.82 -189.61 1494.54 -190.56 C 1491.24 -191.51 1487.94 -192.42 1484.63 -193.31 C 1480.55 -194.38 1476.47 -195.43 1472.38 -196.47 C 1468.88 -197.36 1465.63 -198.41 1462.63 -199.64 C 1459.75 -200.86 1457.44 -202.61 1455.72 -204.88 C 1454 -207.16 1453.14 -210.41 1453.14 -214.63 C 1453.14 -215.41 1453.36 -216.8 1453.8 -218.8 C 1454.25 -220.8 1455.3 -222.82 1456.97 -224.88 C 1458.63 -226.93 1461.19 -228.77 1464.63 -230.38 C 1468.08 -231.99 1472.8 -232.79 1478.8 -232.79 C 1482.9 -232.79 1486.65 -232.35 1490.04 -231.46 C 1493.43 -230.57 1496.35 -229.16 1498.79 -227.21 C 1501.23 -225.27 1503.12 -222.8 1504.45 -219.8 C 1505.79 -216.8 1506.45 -213.13 1506.45 -208.8 L 1506.45 -208.8 Z M 1583.59 -208.8 L 1586.93 -208.8 C 1586.93 -218.35 1584.15 -225.29 1578.6 -229.63 C 1573.04 -233.96 1565.49 -236.13 1555.94 -236.13 C 1550.61 -236.13 1546.11 -235.46 1542.44 -234.13 C 1538.78 -232.79 1535.78 -231.07 1533.44 -228.96 C 1531.11 -226.85 1529.44 -224.52 1528.44 -221.96 C 1527.44 -219.41 1526.95 -216.96 1526.95 -214.63 C 1526.95 -209.97 1527.78 -206.25 1529.45 -203.47 C 1531.11 -200.69 1533.72 -198.53 1537.28 -196.97 C 1539.72 -195.86 1542.5 -194.86 1545.61 -193.97 C 1548.72 -193.08 1552.33 -192.14 1556.44 -191.14 C 1560.1 -190.25 1563.71 -189.36 1567.27 -188.47 C 1570.82 -187.59 1573.96 -186.39 1576.68 -184.89 C 1579.4 -183.39 1581.62 -181.48 1583.34 -179.14 C 1585.07 -176.81 1585.93 -173.76 1585.93 -169.98 C 1585.93 -166.31 1585.07 -163.2 1583.34 -160.65 C 1581.64 -158.11 1579.39 -155.97 1576.76 -154.4 C 1574.1 -152.79 1571.13 -151.63 1567.85 -150.9 C 1564.57 -150.18 1561.38 -149.82 1558.27 -149.82 C 1548.16 -149.82 1540.41 -152.07 1535.03 -156.57 C 1529.64 -161.07 1526.95 -168.15 1526.95 -177.81 L 1523.61 -177.81 C 1523.61 -167.04 1526.53 -159.15 1532.36 -154.15 C 1538.19 -149.15 1546.83 -146.65 1558.27 -146.65 C 1561.93 -146.65 1565.63 -147.07 1569.35 -147.9 C 1573.07 -148.74 1576.4 -150.1 1579.35 -151.99 C 1582.26 -153.85 1584.71 -156.36 1586.51 -159.32 C 1588.34 -162.32 1589.26 -165.98 1589.26 -170.31 C 1589.26 -174.42 1588.45 -177.75 1586.84 -180.31 C 1585.23 -182.86 1583.12 -184.97 1580.51 -186.64 C 1577.9 -188.31 1574.96 -189.61 1571.68 -190.56 C 1568.39 -191.51 1565.08 -192.42 1561.77 -193.31 C 1557.69 -194.38 1553.61 -195.43 1549.52 -196.47 C 1546.02 -197.36 1542.77 -198.41 1539.78 -199.64 C 1536.89 -200.86 1534.58 -202.61 1532.86 -204.88 C 1531.14 -207.16 1530.28 -210.41 1530.28 -214.63 C 1530.28 -215.41 1530.5 -216.8 1530.94 -218.8 C 1531.39 -220.8 1532.44 -222.82 1534.11 -224.88 C 1535.78 -226.93 1538.33 -228.77 1541.77 -230.38 C 1545.22 -231.99 1549.94 -232.79 1555.94 -232.79 C 1560.05 -232.79 1563.8 -232.35 1567.18 -231.46 C 1570.57 -230.57 1573.49 -229.16 1575.93 -227.21 C 1578.37 -225.27 1580.26 -222.8 1581.6 -219.8 C 1582.93 -216.8 1583.6 -213.13 1583.6 -208.8 L 1583.59 -208.8 Z" style="stroke-width: 1; fill: rgb(255, 255, 255);" transform="matrix(0.9999999999999999, 0, 0, 0.9999999999999999, 0, -2.2737367544323206e-13)"/>
</svg>