<?xml version="1.0" encoding="utf-8"?>
<svg xmlns="http://www.w3.org/2000/svg" viewBox="636.687 537.681 256 164.1807" width="256px" height="164.181px">
  <path d="M 884.627 560.995 L 892.687 540.125 L 892.337 538.832 L 812.617 559.835 C 821.117 547.541 818.197 537.681 818.197 537.681 C 818.197 537.681 792.747 553.938 773.487 553.513 C 754.237 553.087 748.037 547.949 718.517 557.366 C 688.997 566.776 680.657 595.661 672.097 601.866 C 663.537 608.071 636.687 628.284 636.687 628.284 L 636.747 628.643 L 660.947 620.936 C 660.947 620.936 654.317 627.191 640.207 646.201 L 639.547 645.592 L 639.577 645.726 C 639.577 645.726 650.907 663.05 662.037 659.847 C 663.157 659.522 664.417 658.988 665.787 658.287 C 670.267 660.782 676.117 663.234 682.577 663.909 C 682.577 663.909 678.197 658.829 674.557 653.049 C 675.537 652.415 676.547 651.756 677.577 651.089 L 677.097 651.423 L 686.317 654.809 L 685.297 646.143 C 685.337 646.126 685.357 646.101 685.387 646.084 L 694.447 649.412 L 693.327 641.53 C 694.457 640.937 695.597 640.373 696.757 639.837 L 706.207 604.12 L 745.247 577.486 L 742.147 585.294 C 734.227 604.762 719.367 609.358 719.367 609.358 L 713.157 611.71 C 708.547 617.165 706.607 618.508 705.017 636.817 C 708.737 635.883 712.287 635.657 715.507 636.525 C 732.197 641.021 737.977 661.124 733.477 666.687 C 732.357 668.08 729.677 670.457 726.297 673.252 L 719.527 673.252 L 719.427 678.74 C 719.197 678.924 718.967 679.099 718.737 679.282 L 711.847 679.282 L 711.767 684.637 C 711.157 685.105 710.547 685.555 709.967 685.997 C 703.487 686.13 695.287 680.483 695.287 680.483 C 695.287 685.622 699.577 693.529 699.577 693.529 C 699.577 693.529 699.857 693.396 700.327 693.162 C 699.917 693.471 699.677 693.638 699.677 693.638 C 699.677 693.638 717.007 705.19 727.917 700.911 C 737.617 697.107 762.727 677.305 784.407 667.93 L 850.017 650.647 L 858.667 628.234 L 808.667 641.404 L 808.667 621.278 L 867.327 605.821 L 875.977 583.408 L 808.687 601.142 L 808.687 581.005 L 884.627 560.995 Z" style="fill: rgb(252, 252, 252); stroke: rgb(0, 0, 0); stroke-width: 5px;" transform="matrix(1, 0, 0, 1, 0, -5.684341886080802e-14)"/>
</svg>