<?xml version="1.0" encoding="utf-8"?>
<svg xmlns="http://www.w3.org/2000/svg" viewBox="1081.64 423.689 256 164.1808" width="256px" height="164.181px">
  <path d="M 1329.58 447.003 L 1337.64 426.133 L 1337.29 424.84 L 1257.57 445.843 C 1266.07 433.549 1263.15 423.689 1263.15 423.689 C 1263.15 423.689 1237.7 439.946 1218.44 439.521 C 1199.19 439.095 1192.99 433.957 1163.47 443.374 C 1133.95 452.784 1125.61 481.669 1117.05 487.874 C 1108.49 494.079 1081.64 514.292 1081.64 514.292 L 1081.7 514.651 L 1105.9 506.944 C 1105.9 506.944 1099.27 513.199 1085.16 532.209 L 1084.5 531.6 L 1084.53 531.734 C 1084.53 531.734 1095.86 549.058 1106.99 545.855 C 1108.11 545.53 1109.37 544.996 1110.74 544.295 C 1115.22 546.79 1121.07 549.242 1127.53 549.917 C 1127.53 549.917 1123.15 544.837 1119.51 539.057 C 1120.49 538.423 1121.5 537.764 1122.53 537.097 L 1122.05 537.431 L 1131.27 540.817 L 1130.25 532.151 C 1130.29 532.134 1130.31 532.109 1130.34 532.092 L 1139.4 535.42 L 1138.28 527.538 C 1139.41 526.945 1140.55 526.381 1141.71 525.845 L 1151.16 490.128 L 1190.2 463.494 L 1187.1 471.302 C 1179.18 490.77 1164.32 495.366 1164.32 495.366 L 1158.11 497.718 C 1153.5 503.173 1151.56 504.516 1149.97 522.825 C 1153.69 521.891 1157.24 521.665 1160.46 522.533 C 1177.15 527.029 1182.93 547.132 1178.43 552.695 C 1177.31 554.088 1174.63 556.465 1171.25 559.26 L 1164.48 559.26 L 1164.38 564.748 C 1164.15 564.932 1163.92 565.107 1163.69 565.29 L 1156.8 565.29 L 1156.72 570.645 C 1156.11 571.113 1155.5 571.563 1154.92 572.005 C 1148.44 572.138 1140.24 566.491 1140.24 566.491 C 1140.24 571.63 1144.53 579.537 1144.53 579.537 C 1144.53 579.537 1144.81 579.404 1145.28 579.17 C 1144.87 579.479 1144.63 579.646 1144.63 579.646 C 1144.63 579.646 1161.96 591.198 1172.87 586.919 C 1182.57 583.115 1207.68 563.313 1229.36 553.938 L 1294.97 536.655 L 1303.62 514.242 L 1253.62 527.412 L 1253.62 507.286 L 1312.28 491.829 L 1320.93 469.416 L 1253.64 487.15 L 1253.64 467.013 L 1329.58 447.003 Z" style="stroke-width: 1; fill: rgb(252, 252, 252);" transform="matrix(0.9999999999999999, 0, 0, 0.9999999999999999, 0, -2.2737367544323206e-13)"/>
</svg>