<?xml version="1.0" encoding="utf-8"?>
<svg xmlns="http://www.w3.org/2000/svg" viewBox="1180.8 -291.1597 1023.01 1023.1458" width="1023.01px" height="1023.15px">
  <path d="M 1658.8 -290.89 C 1656.61 -290.68 1649.61 -289.99 1643.3 -289.49 C 1498 -276.39 1361.91 -197.99 1275.7 -77.488 C 1227.7 -10.488 1197.01 65.512 1185.41 146.012 C 1181.3 174.112 1180.8 182.412 1180.8 220.512 C 1180.8 258.612 1181.3 266.912 1185.41 295.012 C 1213.2 487.112 1349.91 648.511 1535.3 708.311 C 1568.5 719.011 1603.5 726.311 1643.3 730.711 C 1658.8 732.411 1725.8 732.411 1741.3 730.711 C 1810 723.111 1868.21 706.111 1925.61 676.811 C 1934.41 672.311 1936.11 671.111 1934.91 670.111 C 1934.11 669.511 1896.61 619.212 1851.61 558.412 L 1769.8 447.912 L 1667.3 296.212 C 1610.91 212.812 1564.5 144.612 1564.11 144.612 C 1563.71 144.512 1563.3 211.912 1563.11 294.212 C 1562.8 438.312 1562.71 444.112 1560.91 447.512 C 1558.3 452.412 1556.3 454.412 1552.11 456.612 C 1548.91 458.212 1546.11 458.512 1531 458.512 L 1513.71 458.512 L 1509.11 455.612 C 1506.11 453.712 1503.91 451.212 1502.41 448.312 L 1500.3 443.812 L 1500.5 243.312 L 1500.8 42.712 L 1503.91 38.812 C 1505.5 36.712 1508.91 34.012 1511.3 32.712 C 1515.41 30.712 1517 30.512 1534.3 30.512 C 1554.71 30.512 1558.11 31.312 1563.41 37.112 C 1564.91 38.712 1620.41 122.312 1686.8 223.012 C 1753.21 323.712 1844 461.212 1888.61 528.712 L 1969.61 651.411 L 1973.71 648.711 C 2010.01 625.112 2048.41 591.512 2078.81 556.512 C 2143.51 482.212 2185.21 391.612 2199.21 295.012 C 2203.31 266.912 2203.81 258.612 2203.81 220.512 C 2203.81 182.412 2203.31 174.112 2199.21 146.012 C 2171.41 -46.088 2034.71 -207.49 1849.3 -267.28 C 1816.61 -277.89 1781.8 -285.18 1742.8 -289.58 C 1733.21 -290.58 1667.11 -291.68 1658.8 -290.89 Z M 1868.21 18.512 C 1873 20.912 1876.91 25.512 1878.3 30.312 C 1879.11 32.912 1879.3 88.512 1879.11 213.812 L 1878.8 393.612 L 1847.11 345.012 L 1815.3 296.412 L 1815.3 165.712 C 1815.3 81.212 1815.71 33.712 1816.3 31.412 C 1817.91 25.812 1821.41 21.412 1826.21 18.812 C 1830.3 16.712 1831.8 16.512 1847.5 16.512 C 1862.3 16.512 1864.91 16.712 1868.21 18.512 Z" style="stroke-width: 1; fill: rgb(255, 255, 255);" id="object-0" transform="matrix(0.9999999999999999, 0, 0, 0.9999999999999999, 0, -2.2737367544323206e-13)"/>
</svg>