<?xml version="1.0" encoding="utf-8"?>
<svg xmlns="http://www.w3.org/2000/svg" viewBox="104.344 608.3751 1023.006 1023.1398" width="1023.01px" height="1023.14px">
  <path d="M 582.344 608.649 C 580.154 608.849 573.154 609.539 566.844 610.039 C 421.544 623.149 285.454 701.54 199.244 822.042 C 151.244 889.042 120.554 965.04 108.954 1045.54 C 104.844 1073.64 104.344 1081.94 104.344 1120.04 C 104.344 1158.14 104.844 1166.44 108.954 1194.54 C 136.744 1386.64 273.454 1548.04 458.844 1607.85 C 492.044 1618.55 527.044 1625.85 566.844 1630.24 C 582.344 1631.94 649.343 1631.94 664.843 1630.24 C 733.543 1622.64 791.753 1605.64 849.153 1576.34 C 857.953 1571.84 859.653 1570.64 858.453 1569.64 C 857.653 1569.04 820.153 1518.74 775.153 1457.94 L 693.343 1347.44 L 590.844 1195.74 C 534.454 1112.34 488.044 1044.14 487.654 1044.14 C 487.254 1044.04 486.844 1111.44 486.654 1193.74 C 486.344 1337.84 486.254 1343.64 484.454 1347.04 C 481.844 1351.94 479.844 1353.94 475.654 1356.14 C 472.454 1357.74 469.654 1358.04 454.544 1358.04 L 437.254 1358.04 L 432.654 1355.14 C 429.654 1353.24 427.454 1350.74 425.954 1347.84 L 423.844 1343.34 L 424.044 1142.84 L 424.344 942.242 L 427.454 938.342 C 429.044 936.242 432.454 933.542 434.844 932.242 C 438.954 930.242 440.544 930.042 457.844 930.042 C 478.254 930.042 481.654 930.842 486.954 936.642 C 488.454 938.242 543.954 1021.84 610.344 1122.54 C 676.753 1223.24 767.543 1360.74 812.153 1428.24 L 893.153 1550.94 L 897.253 1548.24 C 933.553 1524.64 971.953 1491.04 1002.35 1456.04 C 1067.05 1381.74 1108.75 1291.14 1122.75 1194.54 C 1126.85 1166.44 1127.35 1158.14 1127.35 1120.04 C 1127.35 1081.94 1126.85 1073.64 1122.75 1045.54 C 1094.95 853.442 958.253 692.04 772.843 632.25 C 740.153 621.649 705.343 614.349 666.343 609.959 C 656.753 608.959 590.654 607.849 582.344 608.649 Z M 791.753 918.042 C 796.543 920.442 800.453 925.042 801.843 929.842 C 802.653 932.442 802.843 988.04 802.653 1113.34 L 802.343 1293.14 L 770.653 1244.54 L 738.843 1195.94 L 738.843 1065.24 C 738.843 980.74 739.253 933.242 739.843 930.942 C 741.453 925.342 744.953 920.942 749.753 918.342 C 753.843 916.242 755.343 916.042 771.043 916.042 C 785.843 916.042 788.453 916.242 791.753 918.042 Z" style="fill: rgb(255, 255, 255); stroke: rgb(0, 0, 0); stroke-linecap: round; stroke-width: 50px;" id="object-0"/>
</svg>