<svg width="188" height="188" viewBox="0 0 188 188" fill="none" xmlns="http://www.w3.org/2000/svg">
<path d="M86.5386 9.20187C90.8717 6.74795 96.3961 6.73727 100.621 9.20187L165.311 45.6715C169.356 47.9466 172.064 52.4585 172.026 57.1224V130.246C172.054 135.105 169.08 139.714 164.812 141.945L100.469 178.247C100.195 178.399 99.9174 178.54 99.6341 178.673C99.3514 178.806 99.0642 178.929 98.7727 179.043C98.4817 179.156 98.1868 179.26 97.889 179.354C97.5907 179.447 97.29 179.532 96.9859 179.605C96.6822 179.679 96.3766 179.743 96.0686 179.796C95.7606 179.85 95.4511 179.893 95.1402 179.926C94.8298 179.959 94.5179 179.981 94.2055 179.994C93.8936 180.006 93.5812 180.008 93.2688 179.999C92.9559 179.99 92.6445 179.971 92.3331 179.942C92.0222 179.912 91.7122 179.873 91.4037 179.823C91.0952 179.773 90.7887 179.712 90.484 179.642C90.1794 179.571 89.8777 179.491 89.5785 179.4C89.2792 179.31 88.9833 179.209 88.6908 179.099C88.3984 178.989 88.1103 178.869 87.8256 178.74C87.5409 178.61 87.2611 178.471 86.9861 178.323C86.7106 178.175 86.4405 178.018 86.1757 177.852L66.8675 166.694C65.5514 165.908 64.073 165.286 63.1412 164.013C63.9647 162.908 65.427 162.767 66.6182 162.279C69.3049 161.424 71.7636 160.113 74.2336 158.726C74.8564 158.293 75.6201 158.455 76.2158 158.845L92.6805 168.368C93.8562 169.045 95.0474 168.151 96.055 167.582L159.233 131.925C160.014 131.546 160.447 130.722 160.382 129.867V57.447C160.468 56.4724 159.911 55.5838 159.028 55.1884L94.8473 19.0438C94.755 18.9801 94.6588 18.9238 94.5587 18.8747C94.4581 18.8256 94.3546 18.7843 94.2477 18.7508C94.1413 18.7178 94.0325 18.6925 93.9222 18.6755C93.8115 18.6585 93.7007 18.6498 93.5885 18.6493C93.4767 18.6493 93.366 18.6575 93.2552 18.674C93.1444 18.6906 93.0361 18.7153 92.9292 18.7484C92.8223 18.7809 92.7184 18.8217 92.6178 18.8708C92.5172 18.9194 92.421 18.9753 92.3287 19.0384L28.2398 55.2588C27.3736 55.6543 26.7775 56.5317 26.8858 57.5067V129.926C26.81 130.782 27.2652 131.589 28.0503 131.957L45.1763 141.626C48.3934 143.359 52.3417 144.334 55.8839 143.061C56.0763 142.989 56.2653 142.909 56.4518 142.822C56.6379 142.735 56.8206 142.642 56.9998 142.541C57.1791 142.44 57.3545 142.333 57.5255 142.219C57.6965 142.105 57.8627 141.984 58.0249 141.858C58.1867 141.731 58.3436 141.599 58.4952 141.46C58.6473 141.321 58.7935 141.177 58.9344 141.027C59.0753 140.878 59.2104 140.723 59.3396 140.563C59.4688 140.403 59.5917 140.238 59.7083 140.069C59.8249 139.9 59.9347 139.726 60.0382 139.549C60.1417 139.371 60.2384 139.19 60.3282 139.005C60.4181 138.82 60.5007 138.632 60.576 138.44C60.6513 138.249 60.7193 138.055 60.7801 137.859C60.8408 137.662 60.8942 137.464 60.9399 137.264C60.9856 137.063 61.0235 136.861 61.0536 136.658C61.0842 136.455 61.1065 136.251 61.1216 136.046C61.1367 135.841 61.1435 135.635 61.143 135.43L61.159 63.4435C61.0832 62.3762 62.0903 61.4934 63.1251 61.6018H71.3575C72.4409 61.5746 73.2911 62.7231 73.1449 63.7953L73.1283 136.237C73.1342 142.671 70.4908 149.67 64.5384 152.828C57.2053 156.619 48.1388 155.823 40.8917 152.178L22.4774 141.995C18.1443 139.828 15.2362 135.148 15.2629 130.295V57.171C15.2653 56.8756 15.2775 56.5803 15.2993 56.2858C15.3212 55.9914 15.3528 55.6975 15.3941 55.405C15.4353 55.1126 15.4864 54.8216 15.5471 54.5325C15.6078 54.2434 15.6783 53.9568 15.7579 53.6721C15.8381 53.3879 15.927 53.1061 16.0256 52.8277C16.1243 52.5493 16.2316 52.2744 16.3487 52.0028C16.4653 51.7317 16.5911 51.4645 16.7257 51.2012C16.8603 50.9383 17.0036 50.6804 17.1552 50.4268C17.3068 50.1732 17.4671 49.9249 17.6352 49.682C17.8038 49.4396 17.9796 49.2025 18.1638 48.9712C18.3479 48.74 18.5393 48.5155 18.7385 48.2969C18.9372 48.0788 19.1432 47.8669 19.3565 47.6624C19.5693 47.4579 19.7888 47.2606 20.0152 47.0702C20.2412 46.8802 20.4734 46.698 20.7119 46.5231C20.95 46.3487 21.1939 46.1821 21.4436 46.0237C21.6928 45.8653 21.9469 45.7157 22.2063 45.5743L86.5386 9.20187ZM105.192 59.8902C114.546 59.3485 124.56 59.5326 132.976 64.1422C139.492 67.6736 143.105 75.0835 143.224 82.3311C143.039 83.3061 142.021 83.8478 141.09 83.7774C138.382 83.7715 135.663 83.8153 132.944 83.7608C131.79 83.8041 131.124 82.7425 130.978 81.7243C130.198 78.2579 128.308 74.8289 125.047 73.1552C120.043 70.6474 114.237 70.7718 108.777 70.8262C104.791 71.0429 100.507 71.3839 97.1326 73.7241C94.5329 75.5008 93.7532 79.1406 94.6792 81.9681C95.5459 84.0426 97.9449 84.7087 99.9004 85.3262C111.177 88.2727 123.119 88.0347 134.184 91.864C138.761 93.4458 143.24 96.5226 144.811 101.316C146.858 107.74 145.964 115.421 141.398 120.577C137.694 124.824 132.299 127.077 126.91 128.388C119.745 129.986 112.314 130.024 105.04 129.309C98.1995 128.529 91.0831 126.73 85.8021 122.072C81.2854 118.151 79.0865 112.041 79.3027 106.148C79.3571 105.151 80.3482 104.458 81.3068 104.539H89.4313C90.5253 104.463 91.3265 105.405 91.3809 106.434C91.8847 109.685 93.125 113.205 96.006 115.101C101.563 118.687 108.534 118.438 114.892 118.541C120.162 118.308 126.076 118.237 130.382 114.749C132.657 112.761 133.323 109.441 132.711 106.581C132.045 104.165 129.461 103.044 127.295 102.248C116.165 98.7268 104.087 100.005 93.0652 96.0188C88.5917 94.4369 84.264 91.4471 82.5471 86.8483C80.1481 80.3484 81.2475 72.2939 86.3006 67.3107C91.1749 62.3548 98.3243 60.4426 105.094 59.76L105.192 59.8902Z" fill="#8CC84B"/>
</svg>
